# xmcd
#
# Track frame offsets:
#	150
#	15105
#	30496
#	47654
#	60861
#	76794
#	97483
#	112912
#	131407
#	145711
#	161594
#
# Disc length: 2359 seconds
#
# Revision: 1
# Processed by: cddbd v1.5.2PL0 Copyright (c) Steve Scherf et al.
# Submitted via: audiograbber 1.83.01
#
DISCID=7809350b
DTITLE=Clay McClinton - Son of A Gun
DYEAR=2006
DGENRE=
TTITLE0=One of Those Guys
TTITLE1=A Thing for You
TTITLE2=If We Don't Work Together
TTITLE3=Howlin' At the Moon
TTITLE4=Dig Deep
TTITLE5=The Man I Wanna Be
TTITLE6=Homesick Blues
TTITLE7=Missing You
TTITLE8=Worn Down to the Bone
TTITLE9=What Can't Be Understood
TTITLE10=Listening to the Rain
EXTD=
EXTT0=
EXTT1=
EXTT2=
EXTT3=
EXTT4=
EXTT5=
EXTT6=
EXTT7=
EXTT8=
EXTT9=
EXTT10=
PLAYORDER=
